HIERARCHY
ROOT Hips
{
	OFFSET 0.000000 0.000000 0.000000
	CHANNELS 6 Xposition Yposition Zposition Zrotation Yrotation Xrotation 
	JOINT LeftUpLeg_virtual
	{
		OFFSET 0.000000 0.000000 0.000000
		CHANNELS 3 Zrotation Yrotation Xrotation
		JOINT LeftUpLeg
		{
			OFFSET 10.205400 -3.823500 0.155100
			CHANNELS 3 Zrotation Yrotation Xrotation
			JOINT LeftLeg
			{
				OFFSET 0.708757 -12.982077 0.567790
				CHANNELS 3 Zrotation Yrotation Xrotation
				JOINT LeftFoot
				{
					OFFSET -0.708756 -10.717838 -2.184338
					CHANNELS 3 Zrotation Yrotation Xrotation
					JOINT LeftToeBase
					{
						OFFSET 0.108149 -7.191104 7.560241
						CHANNELS 3 Zrotation Yrotation Xrotation
						End Site
						{
							OFFSET 0.000000 0.000000 0.000000
						}
					}
				}
			}
		}
	}
	JOINT RightUpLeg_virtual
	{
		OFFSET 0.000000 0.000000 0.000000
		CHANNELS 3 Zrotation Yrotation Xrotation
		JOINT RightUpLeg
		{
			OFFSET -10.205400 -3.823500 0.005500
			CHANNELS 3 Zrotation Yrotation Xrotation
			JOINT RightLeg
			{
				OFFSET -0.708756 -12.982134 0.610632
				CHANNELS 3 Zrotation Yrotation Xrotation
				JOINT RightFoot
				{
					OFFSET 0.708754 -10.717769 -1.945823
					CHANNELS 3 Zrotation Yrotation Xrotation
					JOINT RightToeBase
					{
						OFFSET -0.108140 -7.191069 7.372968
						CHANNELS 3 Zrotation Yrotation Xrotation
						End Site
						{
							OFFSET 0.000000 0.000000 0.000000
						}
					}
				}
			}
		}
	}
	JOINT Spine_virtual
	{
		OFFSET 0.000000 0.000000 0.000000
		CHANNELS 3 Zrotation Yrotation Xrotation
		JOINT Spine
		{
			OFFSET 0.000000 6.876099 0.125700
			CHANNELS 3 Zrotation Yrotation Xrotation
			JOINT Spine1
			{
				OFFSET 0.000000 8.022060 0.146608
				CHANNELS 3 Zrotation Yrotation Xrotation
				JOINT Spine2
				{
					OFFSET 0.000000 9.168068 0.167552
					CHANNELS 3 Zrotation Yrotation Xrotation
					JOINT Neck_virtual
					{
						OFFSET 0.000000 0.000000 0.000000
						CHANNELS 3 Zrotation Yrotation Xrotation
						JOINT Neck
						{
							OFFSET 0.000000 10.314075 0.188496
							CHANNELS 3 Zrotation Yrotation Xrotation
							JOINT Head
							{
								OFFSET 0.000000 7.643700 -2.377400
								CHANNELS 3 Zrotation Yrotation Xrotation
								End Site
								{
									OFFSET 0.000000 0.000000 0.000000
								}
							}
						}
					}
					JOINT LeftShoulder_virtual
					{
						OFFSET 0.000000 0.000000 0.000000
						CHANNELS 3 Zrotation Yrotation Xrotation
						JOINT LeftShoulder
						{
							OFFSET 4.392200 8.824978 0.174984
							CHANNELS 3 Zrotation Yrotation Xrotation
							JOINT LeftArm
							{
								OFFSET 8.771219 -2.981674 -0.026999
								CHANNELS 3 Zrotation Yrotation Xrotation
								JOINT LeftForeArm
								{
									OFFSET 8.512804 0.000000 -0.000000
									CHANNELS 3 Zrotation Yrotation Xrotation
									JOINT LeftHand
									{
										OFFSET 18.484802 0.000000 -0.000000
										CHANNELS 3 Zrotation Yrotation Xrotation
										End Site
										{
											OFFSET 0.000000 0.000000 0.000000
										}
									}
								}
							}
						}
					}
					JOINT RightShoulder_virtual
					{
						OFFSET 0.000000 0.000000 0.000000
						CHANNELS 3 Zrotation Yrotation Xrotation
						JOINT RightShoulder
						{
							OFFSET -4.392200 8.824993 0.141379
							CHANNELS 3 Zrotation Yrotation Xrotation
							JOINT RightArm
							{
								OFFSET -8.771282 -2.981682 -0.094208
								CHANNELS 3 Zrotation Yrotation Xrotation
								JOINT RightForeArm
								{
									OFFSET -8.494598 0.000000 0.000000
									CHANNELS 3 Zrotation Yrotation Xrotation
									JOINT RightHand
									{
										OFFSET -18.483803 0.000000 0.000001
										CHANNELS 3 Zrotation Yrotation Xrotation
										End Site
										{
											OFFSET 0.000000 0.000000 0.000000
										}
									}
								}
							}
						}
					}
				}
			}
		}
	}
}
MOTION
Frames: 5
Frame Time: 0.033333
-2.202252 36.286350 7.501851 -179.331589 -6.582896 -179.470078 -1.056126 -2.307389 15.936665 -5.401907 -0.846370 -16.843327 2.678315 8.105846 16.062687 5.264224 0.632342 8.517086 0.000000 0.000000 0.000000 5.697016 -1.191694 14.157942 -7.407771 6.217753 -17.965117 -4.493382 5.175797 18.443652 10.906386 0.779229 3.736292 0.000000 0.000000 0.000000 2.929028 0.910163 3.397971 1.754906 -2.014879 -12.530014 0.011866 -2.426349 7.101714 -0.073803 -0.019587 0.124144 -0.562489 -0.087204 9.123186 -1.460475 2.516349 16.099654 0.000000 0.000000 0.000000 1.109779 0.527776 6.401916 -17.514024 -6.312314 2.171950 -56.334355 22.699420 -11.850796 3.107584 -28.722561 2.350515 0.000000 0.000000 0.000000 -2.845551 1.553188 5.711860 26.433385 1.696966 5.420091 46.086210 -20.860098 4.406606 -3.997539 29.161059 -3.388722 0.000000 0.000000 0.000000 
-2.213775 36.285408 7.577234 -179.032714 -6.902300 -179.191884 -1.298880 -1.879371 16.298631 -5.638116 -0.968861 -16.608068 2.566916 8.316029 16.289479 5.070840 0.474736 9.010125 0.000000 0.000000 0.000000 5.936641 -1.210522 14.085993 -7.431677 6.573329 -18.313494 -4.537025 5.354433 18.386108 11.114862 0.886810 3.559172 0.000000 0.000000 0.000000 3.096242 0.942337 3.169890 1.872102 -2.052258 -12.701988 0.020380 -2.600189 7.018816 -0.118298 -0.128636 0.093596 -0.643154 -0.041578 9.101575 -1.533127 2.490447 15.916357 0.000000 0.000000 0.000000 1.047298 0.572626 6.332150 -17.608818 -6.570496 2.290936 -55.924411 21.386910 -11.246961 3.051528 -29.543375 2.356190 0.000000 0.000000 0.000000 -2.891958 1.482788 5.733776 26.413861 1.925456 5.329790 45.886433 -20.034634 4.966856 -3.929447 29.535671 -3.429203 0.000000 0.000000 0.000000 
-2.217173 36.262577 7.673019 -179.049147 -6.852365 -179.206460 -1.256217 -1.786667 16.314940 -5.655844 -0.964316 -16.828628 2.551972 8.290486 16.404670 4.914301 0.445329 8.914409 0.000000 0.000000 0.000000 5.873075 -1.132883 14.163293 -7.410012 7.195924 -18.555423 -4.626503 5.923791 18.463427 10.957321 0.798525 3.412748 0.000000 0.000000 0.000000 3.088876 1.018022 3.100329 1.809129 -2.021400 -12.732197 -0.038871 -2.536205 7.032193 -0.085180 -0.079323 0.175633 -0.706803 -0.074824 9.072413 -1.472681 2.533420 15.924038 0.000000 0.000000 0.000000 0.923734 0.430525 6.361385 -17.867065 -7.217963 2.275529 -54.795592 19.131310 -9.674219 2.926324 -30.521336 2.400539 0.000000 0.000000 0.000000 -2.969733 1.472223 5.676909 26.627581 2.363782 5.431530 45.501351 -18.610075 6.336677 -3.891619 30.041276 -3.420209 0.000000 0.000000 0.000000 
-2.202076 36.232433 7.779902 -179.072397 -6.773233 -179.231377 -1.240221 -1.756601 16.246879 -5.644011 -0.905079 -17.010755 2.563770 8.224306 16.639814 4.711067 0.448238 8.756697 0.000000 0.000000 0.000000 5.763788 -1.141357 14.118454 -7.318203 7.498906 -18.767159 -4.676286 6.402676 18.561189 10.780958 0.772849 3.460148 0.000000 0.000000 0.000000 3.062254 0.949637 3.038394 1.711073 -1.951077 -12.686708 -0.093721 -2.531934 7.018109 -0.040666 -0.040318 0.111507 -0.808552 -0.066112 9.140771 -1.364609 2.590529 16.089609 0.000000 0.000000 0.000000 0.813149 0.371287 6.393028 -18.210903 -7.764473 2.381217 -53.365378 16.402978 -7.773872 2.496118 -31.998473 2.676757 0.000000 0.000000 0.000000 -3.063111 1.454864 5.707915 27.002157 2.850529 5.495734 44.860799 -16.712747 7.779462 -3.796874 30.646273 -3.372744 0.000000 0.000000 0.000000 
-2.175496 36.210583 7.881650 -179.034544 -6.756932 -179.274735 -1.216425 -1.701435 16.049876 -5.573259 -0.827120 -17.075075 2.608799 8.123696 16.916183 4.451779 0.466584 8.591586 0.000000 0.000000 0.000000 5.724648 -1.087542 13.972022 -7.210269 7.585540 -18.854676 -4.632651 6.678205 18.650293 10.631799 0.811467 3.490899 0.000000 0.000000 0.000000 3.125555 1.008163 2.918050 1.591077 -2.064755 -12.664209 -0.199029 -2.561768 7.031506 -0.069149 -0.070549 0.190939 -0.816550 -0.155136 9.149645 -1.097097 2.766954 16.333224 0.000000 0.000000 0.000000 0.815238 0.337778 6.310974 -18.580898 -8.312240 2.461161 -51.906258 13.525395 -6.040619 2.181130 -33.684700 2.708389 0.000000 0.000000 0.000000 -3.027623 1.415948 5.666158 27.368667 3.530763 5.487999 43.982344 -14.689068 9.144339 -3.574978 31.432090 -3.220349 0.000000 0.000000 0.000000 
